<svg width="178" height="124" viewBox="0 0 178 124" fill="none" xmlns="http://www.w3.org/2000/svg">
<path d="M169.1 0H8.9C6.53957 0 4.27582 0.93316 2.60675 2.5942C0.937676 4.25523 0 6.50808 0 8.85714L0 115.143C0 117.492 0.937676 119.745 2.60675 121.406C4.27582 123.067 6.53957 124 8.9 124H169.1C171.46 124 173.724 123.067 175.393 121.406C177.062 119.745 178 117.492 178 115.143V8.85714C178 6.50808 177.062 4.25523 175.393 2.5942C173.724 0.93316 171.46 0 169.1 0ZM115.7 35.4286H151.3V44.2857H115.7V35.4286ZM97.9 104.541C96.4572 103.442 94.874 102.54 93.1919 101.857C82.6899 97.3577 66.839 90.6971 66.839 82.584C66.839 77.7037 70.0341 79.298 71.4492 70.37C72.0366 66.6677 74.8757 70.308 75.4097 61.8583C75.4097 58.4926 73.8611 57.6511 73.8611 57.6511C73.8611 57.6511 74.6443 52.6734 74.9558 48.8294C75.2762 44.8171 72.9889 32.8866 63.5905 30.256C61.9351 28.5909 60.8226 29.2729 65.8867 26.6069C54.8151 26.0843 52.2341 31.8503 46.3423 36.0929C41.3227 39.8129 39.961 45.7029 40.2102 48.8383C40.5395 52.6734 41.3227 57.66 41.3227 57.66C41.3227 57.66 39.7652 58.4926 39.7652 61.8583C40.3081 70.308 43.1472 66.6677 43.7257 70.37C45.1319 79.298 48.3448 77.7037 48.3448 82.584C48.3448 90.6971 32.4939 97.3577 21.9919 101.857C20.5154 102.472 19.11 103.245 17.8 104.16V17.7143H97.9V104.541ZM160.2 70.8571H115.7V62H160.2V70.8571Z" fill="#E0DBD5"/>
</svg>
